<mxfile host="app.diagrams.net" agent="Mozilla/5.0 (Macintosh; Intel Mac OS X 10_15_7) AppleWebKit/605.1.15 (KHTML, like Gecko) Version/18.1 Safari/605.1.15" version="24.8.6" pages="4">
  <diagram name="Page-1" id="F_Yvgmzx5CMrhTC82k3f">
    <mxGraphModel dx="1035" dy="1813" grid="1" gridSize="10" guides="1" tooltips="1" connect="1" arrows="1" fold="1" page="1" pageScale="1" pageWidth="850" pageHeight="1100" math="0" shadow="0">
      <root>
        <mxCell id="0" />
        <mxCell id="1" parent="0" />
        <mxCell id="vVilO-bE4qT96696ZVer-2" style="rounded=0;orthogonalLoop=1;jettySize=auto;html=1;exitX=0.5;exitY=0.5;exitDx=0;exitDy=0;exitPerimeter=0;entryX=0;entryY=0.5;entryDx=0;entryDy=0;fontFamily=Verdana;fontColor=#000000;endArrow=none;endFill=0;" parent="1" source="vVilO-bE4qT96696ZVer-4" target="vVilO-bE4qT96696ZVer-11" edge="1">
          <mxGeometry relative="1" as="geometry" />
        </mxCell>
        <mxCell id="vVilO-bE4qT96696ZVer-3" style="rounded=0;orthogonalLoop=1;jettySize=auto;html=1;exitX=0.5;exitY=0.5;exitDx=0;exitDy=0;exitPerimeter=0;entryX=0;entryY=0.5;entryDx=0;entryDy=0;fontColor=#000000;" parent="1" source="vVilO-bE4qT96696ZVer-4" target="vVilO-bE4qT96696ZVer-23" edge="1">
          <mxGeometry relative="1" as="geometry" />
        </mxCell>
        <mxCell id="vVilO-bE4qT96696ZVer-4" value="Player&lt;div&gt;&lt;br&gt;&lt;/div&gt;" style="shape=umlActor;verticalLabelPosition=top;verticalAlign=bottom;html=1;outlineConnect=0;fontFamily=Verdana;fontColor=#000000;align=center;labelPosition=center;" parent="1" vertex="1">
          <mxGeometry x="50" y="-810" width="30" height="60" as="geometry" />
        </mxCell>
        <mxCell id="vVilO-bE4qT96696ZVer-5" style="rounded=0;orthogonalLoop=1;jettySize=auto;html=1;exitX=0.5;exitY=0.5;exitDx=0;exitDy=0;exitPerimeter=0;entryX=0;entryY=0.5;entryDx=0;entryDy=0;endArrow=none;endFill=0;fontColor=#000000;" parent="1" source="vVilO-bE4qT96696ZVer-7" target="vVilO-bE4qT96696ZVer-14" edge="1">
          <mxGeometry relative="1" as="geometry" />
        </mxCell>
        <mxCell id="vVilO-bE4qT96696ZVer-6" style="rounded=0;orthogonalLoop=1;jettySize=auto;html=1;exitX=0.5;exitY=0.5;exitDx=0;exitDy=0;exitPerimeter=0;entryX=0;entryY=0.5;entryDx=0;entryDy=0;endArrow=none;endFill=0;fontColor=#000000;" parent="1" source="vVilO-bE4qT96696ZVer-7" target="vVilO-bE4qT96696ZVer-25" edge="1">
          <mxGeometry relative="1" as="geometry">
            <mxPoint x="160" y="-398.12166666666667" as="targetPoint" />
          </mxGeometry>
        </mxCell>
        <mxCell id="vVilO-bE4qT96696ZVer-7" value="Clan Admins&lt;div&gt;&lt;br&gt;&lt;/div&gt;" style="shape=umlActor;verticalLabelPosition=bottom;verticalAlign=top;html=1;outlineConnect=0;fontFamily=Verdana;fontColor=#000000;" parent="1" vertex="1">
          <mxGeometry x="50" y="-540" width="30" height="60" as="geometry" />
        </mxCell>
        <mxCell id="vVilO-bE4qT96696ZVer-8" value="&lt;p style=&quot;margin: 0px 0px 0px 21px; text-indent: -21px; font-style: normal; font-variant: normal; font-stretch: normal; font-size: 14px; line-height: normal; font-size-adjust: none; font-kerning: auto; font-feature-settings: normal; font-optical-sizing: auto; font-variation-settings: normal;&quot;&gt;&lt;b&gt;Request Troops&lt;/b&gt;&lt;/p&gt;" style="ellipse;whiteSpace=wrap;html=1;fontFamily=Verdana;fontColor=#000000;" parent="1" vertex="1">
          <mxGeometry x="650" y="-890" width="140" height="70" as="geometry" />
        </mxCell>
        <mxCell id="vVilO-bE4qT96696ZVer-9" value="&lt;p style=&quot;margin: 0px 0px 0px 21px; text-indent: -21px; font-style: normal; font-variant: normal; font-stretch: normal; font-size: 14px; line-height: normal; font-size-adjust: none; font-kerning: auto; font-feature-settings: normal; font-optical-sizing: auto; font-variation-settings: normal;&quot;&gt;&lt;b&gt;Chat Room&lt;/b&gt;&lt;/p&gt;" style="ellipse;whiteSpace=wrap;html=1;fontFamily=Verdana;fontColor=#000000;" parent="1" vertex="1">
          <mxGeometry x="390" y="-810" width="140" height="70" as="geometry" />
        </mxCell>
        <mxCell id="vVilO-bE4qT96696ZVer-10" value="&lt;p style=&quot;margin: 0px 0px 0px 21px; text-indent: -21px; font-style: normal; font-variant: normal; font-stretch: normal; font-size: 14px; line-height: normal; font-size-adjust: none; font-kerning: auto; font-feature-settings: normal; font-optical-sizing: auto; font-variation-settings: normal;&quot;&gt;&lt;b&gt;Donate Troops&lt;/b&gt;&lt;/p&gt;" style="ellipse;whiteSpace=wrap;html=1;fontFamily=Verdana;fontColor=#000000;" parent="1" vertex="1">
          <mxGeometry x="650" y="-805" width="140" height="70" as="geometry" />
        </mxCell>
        <mxCell id="vVilO-bE4qT96696ZVer-11" value="&lt;p style=&quot;margin: 0px 0px 0px 21px; text-indent: -21px; font-style: normal; font-variant: normal; font-stretch: normal; font-size: 14px; line-height: normal; font-size-adjust: none; font-kerning: auto; font-feature-settings: normal; font-optical-sizing: auto; font-variation-settings: normal;&quot;&gt;&lt;b&gt;Clan&lt;/b&gt;&lt;/p&gt;" style="ellipse;whiteSpace=wrap;html=1;fontFamily=Verdana;fontColor=#000000;" parent="1" vertex="1">
          <mxGeometry x="190" y="-750" width="140" height="70" as="geometry" />
        </mxCell>
        <mxCell id="vVilO-bE4qT96696ZVer-12" value="&amp;lt;&amp;lt;include&amp;gt;&amp;gt;" style="html=1;verticalAlign=bottom;labelBackgroundColor=none;endArrow=open;endFill=0;dashed=1;rounded=0;entryX=0;entryY=0.5;entryDx=0;entryDy=0;exitX=1;exitY=0.5;exitDx=0;exitDy=0;fontFamily=Verdana;fontColor=#000000;" parent="1" source="vVilO-bE4qT96696ZVer-11" target="vVilO-bE4qT96696ZVer-9" edge="1">
          <mxGeometry width="160" relative="1" as="geometry">
            <mxPoint x="390" y="-710" as="sourcePoint" />
            <mxPoint x="550" y="-710" as="targetPoint" />
          </mxGeometry>
        </mxCell>
        <mxCell id="vVilO-bE4qT96696ZVer-13" value="&amp;lt;&amp;lt;include&amp;gt;&amp;gt;" style="html=1;verticalAlign=bottom;labelBackgroundColor=none;endArrow=open;endFill=0;dashed=1;rounded=0;entryX=0;entryY=0.5;entryDx=0;entryDy=0;exitX=1;exitY=0.5;exitDx=0;exitDy=0;fontFamily=Verdana;fontColor=#000000;" parent="1" source="vVilO-bE4qT96696ZVer-9" target="vVilO-bE4qT96696ZVer-8" edge="1">
          <mxGeometry width="160" relative="1" as="geometry">
            <mxPoint x="460" y="-635.5" as="sourcePoint" />
            <mxPoint x="650" y="-850" as="targetPoint" />
          </mxGeometry>
        </mxCell>
        <mxCell id="vVilO-bE4qT96696ZVer-14" value="&lt;p style=&quot;margin: 0px 0px 0px 21px; text-indent: -21px; font-style: normal; font-variant: normal; font-stretch: normal; font-size: 14px; line-height: normal; font-size-adjust: none; font-kerning: auto; font-feature-settings: normal; font-optical-sizing: auto; font-variation-settings: normal;&quot;&gt;&lt;b&gt;Mange Clan&lt;/b&gt;&lt;/p&gt;" style="ellipse;whiteSpace=wrap;html=1;fontFamily=Verdana;fontColor=#000000;" parent="1" vertex="1">
          <mxGeometry x="210" y="-550" width="140" height="70" as="geometry" />
        </mxCell>
        <mxCell id="vVilO-bE4qT96696ZVer-15" value="" style="endArrow=block;endSize=16;endFill=0;html=1;rounded=0;exitX=0.5;exitY=0;exitDx=0;exitDy=0;exitPerimeter=0;fontColor=#000000;" parent="1" source="vVilO-bE4qT96696ZVer-7" target="vVilO-bE4qT96696ZVer-4" edge="1">
          <mxGeometry width="160" relative="1" as="geometry">
            <mxPoint x="70" y="-630" as="sourcePoint" />
            <mxPoint x="210" y="-690" as="targetPoint" />
          </mxGeometry>
        </mxCell>
        <mxCell id="vVilO-bE4qT96696ZVer-16" value="&amp;lt;&amp;lt;include&amp;gt;&amp;gt;" style="html=1;verticalAlign=bottom;labelBackgroundColor=none;endArrow=open;endFill=0;dashed=1;rounded=0;exitX=1.018;exitY=0.601;exitDx=0;exitDy=0;fontFamily=Verdana;fontColor=#000000;exitPerimeter=0;entryX=0;entryY=0.5;entryDx=0;entryDy=0;" parent="1" source="vVilO-bE4qT96696ZVer-9" target="vVilO-bE4qT96696ZVer-10" edge="1">
          <mxGeometry width="160" relative="1" as="geometry">
            <mxPoint x="540" y="-695" as="sourcePoint" />
            <mxPoint x="610" y="-675" as="targetPoint" />
          </mxGeometry>
        </mxCell>
        <mxCell id="vVilO-bE4qT96696ZVer-17" value="&lt;p style=&quot;margin: 0px 0px 0px 21px; text-indent: -21px; font-style: normal; font-variant: normal; font-stretch: normal; font-size: 14px; line-height: normal; font-size-adjust: none; font-kerning: auto; font-feature-settings: normal; font-optical-sizing: auto; font-variation-settings: normal;&quot;&gt;&lt;b&gt;Friendly Battle&lt;/b&gt;&lt;/p&gt;" style="ellipse;whiteSpace=wrap;html=1;fontFamily=Verdana;fontColor=#000000;" parent="1" vertex="1">
          <mxGeometry x="650" y="-725" width="140" height="70" as="geometry" />
        </mxCell>
        <mxCell id="vVilO-bE4qT96696ZVer-18" style="rounded=0;orthogonalLoop=1;jettySize=auto;html=1;exitX=0.5;exitY=0.5;exitDx=0;exitDy=0;exitPerimeter=0;entryX=0.5;entryY=0;entryDx=0;entryDy=0;endArrow=none;endFill=0;fontColor=#000000;" parent="1" source="vVilO-bE4qT96696ZVer-19" target="vVilO-bE4qT96696ZVer-11" edge="1">
          <mxGeometry relative="1" as="geometry" />
        </mxCell>
        <mxCell id="vVilO-bE4qT96696ZVer-19" value="&lt;div&gt;Database&lt;/div&gt;" style="shape=umlActor;verticalLabelPosition=top;verticalAlign=bottom;html=1;outlineConnect=0;fontFamily=Verdana;fontColor=#000000;labelPosition=center;align=center;" parent="1" vertex="1">
          <mxGeometry x="410" y="-990" width="30" height="60" as="geometry" />
        </mxCell>
        <mxCell id="vVilO-bE4qT96696ZVer-20" value="&lt;p style=&quot;margin: 0px 0px 0px 21px; text-indent: -21px; font-variant-numeric: normal; font-variant-east-asian: normal; font-variant-alternates: normal; font-variant-position: normal; font-stretch: normal; line-height: normal; font-size-adjust: none; font-kerning: auto; font-feature-settings: normal; font-optical-sizing: auto; font-variation-settings: normal;&quot;&gt;&lt;span style=&quot;font-size: 14px;&quot;&gt;&lt;b&gt;War&lt;/b&gt;&lt;/span&gt;&lt;/p&gt;" style="ellipse;whiteSpace=wrap;html=1;fontFamily=Verdana;fontColor=#000000;" parent="1" vertex="1">
          <mxGeometry x="405" y="-680" width="110" height="70" as="geometry" />
        </mxCell>
        <mxCell id="vVilO-bE4qT96696ZVer-21" value="&amp;lt;&amp;lt;include&amp;gt;&amp;gt;" style="html=1;verticalAlign=bottom;labelBackgroundColor=none;endArrow=open;endFill=0;dashed=1;rounded=0;exitX=1.009;exitY=0.632;exitDx=0;exitDy=0;fontFamily=Verdana;fontColor=#000000;exitPerimeter=0;entryX=0;entryY=0.5;entryDx=0;entryDy=0;" parent="1" source="vVilO-bE4qT96696ZVer-9" target="vVilO-bE4qT96696ZVer-17" edge="1">
          <mxGeometry width="160" relative="1" as="geometry">
            <mxPoint x="543" y="-758" as="sourcePoint" />
            <mxPoint x="640" y="-790" as="targetPoint" />
          </mxGeometry>
        </mxCell>
        <mxCell id="vVilO-bE4qT96696ZVer-22" value="&amp;lt;&amp;lt;include&amp;gt;&amp;gt;" style="html=1;verticalAlign=bottom;labelBackgroundColor=none;endArrow=open;endFill=0;dashed=1;rounded=0;entryX=0;entryY=0.5;entryDx=0;entryDy=0;fontFamily=Verdana;fontColor=#000000;exitX=1;exitY=0.5;exitDx=0;exitDy=0;" parent="1" source="vVilO-bE4qT96696ZVer-11" target="vVilO-bE4qT96696ZVer-20" edge="1">
          <mxGeometry width="160" relative="1" as="geometry">
            <mxPoint x="320" y="-750" as="sourcePoint" />
            <mxPoint x="410" y="-860" as="targetPoint" />
          </mxGeometry>
        </mxCell>
        <mxCell id="vVilO-bE4qT96696ZVer-23" value="&lt;p style=&quot;margin: 0px 0px 0px 21px; text-indent: -21px; font-style: normal; font-variant: normal; font-stretch: normal; font-size: 14px; line-height: normal; font-size-adjust: none; font-kerning: auto; font-feature-settings: normal; font-optical-sizing: auto; font-variation-settings: normal;&quot;&gt;&lt;b&gt;Shop&lt;/b&gt;&lt;/p&gt;" style="ellipse;whiteSpace=wrap;html=1;fontFamily=Verdana;fontColor=#000000;" parent="1" vertex="1">
          <mxGeometry x="170" y="-890" width="140" height="70" as="geometry" />
        </mxCell>
        <mxCell id="vVilO-bE4qT96696ZVer-24" style="rounded=0;orthogonalLoop=1;jettySize=auto;html=1;exitX=0.5;exitY=0;exitDx=0;exitDy=0;entryX=0.5;entryY=0.5;entryDx=0;entryDy=0;entryPerimeter=0;endArrow=none;endFill=0;fontColor=#000000;" parent="1" source="vVilO-bE4qT96696ZVer-23" target="vVilO-bE4qT96696ZVer-19" edge="1">
          <mxGeometry relative="1" as="geometry" />
        </mxCell>
        <mxCell id="vVilO-bE4qT96696ZVer-25" value="&lt;p style=&quot;margin: 0px 0px 0px 21px; text-indent: -21px; font-style: normal; font-variant: normal; font-stretch: normal; font-size: 14px; line-height: normal; font-size-adjust: none; font-kerning: auto; font-feature-settings: normal; font-optical-sizing: auto; font-variation-settings: normal;&quot;&gt;&lt;b&gt;Declare War&lt;/b&gt;&lt;br&gt;&lt;/p&gt;" style="ellipse;whiteSpace=wrap;html=1;fontFamily=Verdana;fontColor=#000000;" parent="1" vertex="1">
          <mxGeometry x="210" y="-450" width="140" height="70" as="geometry" />
        </mxCell>
        <mxCell id="FmMQbdZj-4qlV9mL22ek-2" value="&lt;div style=&quot;text-indent: -21px;&quot;&gt;&lt;font face=&quot;Verdana&quot;&gt;&lt;span style=&quot;font-size: 14px;&quot;&gt;&lt;b&gt;&amp;nbsp; &amp;nbsp; Messaging&lt;/b&gt;&lt;/span&gt;&lt;/font&gt;&lt;/div&gt;" style="ellipse;whiteSpace=wrap;html=1;align=center;" vertex="1" parent="1">
          <mxGeometry x="650" y="-630" width="140" height="70" as="geometry" />
        </mxCell>
        <mxCell id="FmMQbdZj-4qlV9mL22ek-3" value="&amp;lt;&amp;lt;include&amp;gt;&amp;gt;" style="html=1;verticalAlign=bottom;labelBackgroundColor=none;endArrow=open;endFill=0;dashed=1;rounded=0;exitX=1.006;exitY=0.636;exitDx=0;exitDy=0;fontFamily=Verdana;fontColor=#000000;exitPerimeter=0;entryX=0;entryY=0.5;entryDx=0;entryDy=0;" edge="1" parent="1" source="vVilO-bE4qT96696ZVer-9" target="FmMQbdZj-4qlV9mL22ek-2">
          <mxGeometry width="160" relative="1" as="geometry">
            <mxPoint x="515" y="-720" as="sourcePoint" />
            <mxPoint x="634" y="-644" as="targetPoint" />
          </mxGeometry>
        </mxCell>
      </root>
    </mxGraphModel>
  </diagram>
  <diagram id="yYa8GlQ_lv4jHxftiw7c" name="Page-2">
    <mxGraphModel dx="1242" dy="2005" grid="1" gridSize="10" guides="1" tooltips="1" connect="1" arrows="1" fold="1" page="1" pageScale="1" pageWidth="850" pageHeight="1100" math="0" shadow="0">
      <root>
        <mxCell id="0" />
        <mxCell id="1" parent="0" />
        <mxCell id="TzXtD2yy7uCid46pZ_5L-1" value="Player&lt;div&gt;&lt;br&gt;&lt;/div&gt;" style="shape=umlActor;verticalLabelPosition=top;verticalAlign=bottom;html=1;outlineConnect=0;fontFamily=Verdana;fontColor=#000000;align=center;labelPosition=center;" parent="1" vertex="1">
          <mxGeometry x="50" y="-810" width="30" height="60" as="geometry" />
        </mxCell>
        <mxCell id="TzXtD2yy7uCid46pZ_5L-2" value="Clan Admins&lt;div&gt;&lt;br&gt;&lt;/div&gt;" style="shape=umlActor;verticalLabelPosition=bottom;verticalAlign=top;html=1;outlineConnect=0;fontFamily=Verdana;fontColor=#000000;" parent="1" vertex="1">
          <mxGeometry x="50" y="-540" width="30" height="60" as="geometry" />
        </mxCell>
        <mxCell id="TzXtD2yy7uCid46pZ_5L-3" value="" style="endArrow=block;endSize=16;endFill=0;html=1;rounded=0;exitX=0.5;exitY=0;exitDx=0;exitDy=0;exitPerimeter=0;fontColor=#000000;" parent="1" source="TzXtD2yy7uCid46pZ_5L-2" target="TzXtD2yy7uCid46pZ_5L-1" edge="1">
          <mxGeometry width="160" relative="1" as="geometry">
            <mxPoint x="70" y="-630" as="sourcePoint" />
            <mxPoint x="210" y="-690" as="targetPoint" />
          </mxGeometry>
        </mxCell>
        <mxCell id="b00rRTXLvXat3ZMnPBvv-1" style="rounded=0;orthogonalLoop=1;jettySize=auto;html=1;exitX=0.5;exitY=0.5;exitDx=0;exitDy=0;exitPerimeter=0;entryX=0;entryY=0.5;entryDx=0;entryDy=0;endArrow=none;endFill=0;" parent="1" source="H6w9JN00VTNh25Fgn8am-1" target="Y9TT-bLVbpre5m3tWu_5-3" edge="1">
          <mxGeometry relative="1" as="geometry" />
        </mxCell>
        <mxCell id="7UyZ_y0xGmnawDwJEAwz-2" style="rounded=0;orthogonalLoop=1;jettySize=auto;html=1;exitX=0.5;exitY=0.5;exitDx=0;exitDy=0;exitPerimeter=0;entryX=0;entryY=0.5;entryDx=0;entryDy=0;endArrow=none;endFill=0;" parent="1" source="H6w9JN00VTNh25Fgn8am-1" target="7UyZ_y0xGmnawDwJEAwz-1" edge="1">
          <mxGeometry relative="1" as="geometry" />
        </mxCell>
        <mxCell id="_ATYGtqFEuu8Fpfr5ler-2" style="rounded=0;orthogonalLoop=1;jettySize=auto;html=1;exitX=0;exitY=0.5;exitDx=0;exitDy=0;entryX=0.5;entryY=0.5;entryDx=0;entryDy=0;entryPerimeter=0;" parent="1" source="_ATYGtqFEuu8Fpfr5ler-1" target="H6w9JN00VTNh25Fgn8am-1" edge="1">
          <mxGeometry relative="1" as="geometry" />
        </mxCell>
        <mxCell id="H6w9JN00VTNh25Fgn8am-1" value="Player&lt;div&gt;&lt;br&gt;&lt;/div&gt;" style="shape=umlActor;verticalLabelPosition=top;verticalAlign=bottom;html=1;outlineConnect=0;fontFamily=Verdana;fontColor=#000000;align=center;labelPosition=center;" parent="1" vertex="1">
          <mxGeometry x="50" y="-810" width="30" height="60" as="geometry" />
        </mxCell>
        <mxCell id="H6w9JN00VTNh25Fgn8am-2" style="rounded=0;orthogonalLoop=1;jettySize=auto;html=1;exitX=0.5;exitY=0.5;exitDx=0;exitDy=0;exitPerimeter=0;entryX=0;entryY=0.5;entryDx=0;entryDy=0;endArrow=none;endFill=0;fontColor=#000000;" parent="1" source="H6w9JN00VTNh25Fgn8am-4" target="H6w9JN00VTNh25Fgn8am-5" edge="1">
          <mxGeometry relative="1" as="geometry" />
        </mxCell>
        <mxCell id="dxEj6MFzLTTPyFU8vBda-1" style="edgeStyle=none;curved=1;rounded=0;orthogonalLoop=1;jettySize=auto;html=1;exitX=0.5;exitY=0.5;exitDx=0;exitDy=0;exitPerimeter=0;entryX=0;entryY=0.5;entryDx=0;entryDy=0;fontSize=12;startSize=8;endSize=8;" edge="1" parent="1" source="H6w9JN00VTNh25Fgn8am-4" target="_ATYGtqFEuu8Fpfr5ler-1">
          <mxGeometry relative="1" as="geometry" />
        </mxCell>
        <mxCell id="H6w9JN00VTNh25Fgn8am-4" value="Clan Admins&lt;div&gt;&lt;br&gt;&lt;/div&gt;" style="shape=umlActor;verticalLabelPosition=bottom;verticalAlign=top;html=1;outlineConnect=0;fontFamily=Verdana;fontColor=#000000;" parent="1" vertex="1">
          <mxGeometry x="50" y="-540" width="30" height="60" as="geometry" />
        </mxCell>
        <mxCell id="H6w9JN00VTNh25Fgn8am-5" value="&lt;p style=&quot;margin: 0px 0px 0px 21px; text-indent: -21px; font-style: normal; font-variant: normal; font-stretch: normal; font-size: 14px; line-height: normal; font-size-adjust: none; font-kerning: auto; font-feature-settings: normal; font-optical-sizing: auto; font-variation-settings: normal;&quot;&gt;&lt;b&gt;Mange Clan&lt;/b&gt;&lt;/p&gt;&lt;p style=&quot;margin: 0px 0px 0px 21px; text-indent: -21px; font-style: normal; font-variant: normal; font-stretch: normal; font-size: 14px; line-height: normal; font-size-adjust: none; font-kerning: auto; font-feature-settings: normal; font-optical-sizing: auto; font-variation-settings: normal;&quot;&gt;&lt;b&gt;----------------&lt;/b&gt;&lt;/p&gt;&lt;p style=&quot;margin: 0px 0px 0px 21px; text-indent: -21px; font-style: normal; font-variant: normal; font-stretch: normal; font-size: 14px; line-height: normal; font-size-adjust: none; font-kerning: auto; font-feature-settings: normal; font-optical-sizing: auto; font-variation-settings: normal;&quot;&gt;&lt;b&gt;&lt;br&gt;&lt;/b&gt;&lt;/p&gt;" style="ellipse;whiteSpace=wrap;html=1;fontFamily=Verdana;fontColor=#000000;" parent="1" vertex="1">
          <mxGeometry x="170" y="-500" width="140" height="110" as="geometry" />
        </mxCell>
        <mxCell id="H6w9JN00VTNh25Fgn8am-6" value="" style="endArrow=block;endSize=16;endFill=0;html=1;rounded=0;exitX=0.5;exitY=0;exitDx=0;exitDy=0;exitPerimeter=0;fontColor=#000000;" parent="1" source="H6w9JN00VTNh25Fgn8am-4" target="H6w9JN00VTNh25Fgn8am-1" edge="1">
          <mxGeometry width="160" relative="1" as="geometry">
            <mxPoint x="70" y="-630" as="sourcePoint" />
            <mxPoint x="210" y="-690" as="targetPoint" />
          </mxGeometry>
        </mxCell>
        <mxCell id="Y9TT-bLVbpre5m3tWu_5-2" value="&lt;div&gt;Database&lt;/div&gt;" style="shape=umlActor;verticalLabelPosition=top;verticalAlign=bottom;html=1;outlineConnect=0;fontFamily=Verdana;fontColor=#000000;labelPosition=center;align=center;" parent="1" vertex="1">
          <mxGeometry x="660" y="-860" width="30" height="60" as="geometry" />
        </mxCell>
        <mxCell id="Y9TT-bLVbpre5m3tWu_5-3" value="&lt;p style=&quot;margin: 0px 0px 0px 21px; text-indent: -21px; font-style: normal; font-variant: normal; font-stretch: normal; font-size: 14px; line-height: normal; font-size-adjust: none; font-kerning: auto; font-feature-settings: normal; font-optical-sizing: auto; font-variation-settings: normal;&quot;&gt;&lt;b&gt;Shop&lt;/b&gt;&lt;/p&gt;" style="ellipse;whiteSpace=wrap;html=1;fontFamily=Verdana;fontColor=#000000;" parent="1" vertex="1">
          <mxGeometry x="170" y="-950" width="140" height="70" as="geometry" />
        </mxCell>
        <mxCell id="Y9TT-bLVbpre5m3tWu_5-4" style="rounded=0;orthogonalLoop=1;jettySize=auto;html=1;exitX=1;exitY=0.5;exitDx=0;exitDy=0;entryX=0.5;entryY=0.5;entryDx=0;entryDy=0;entryPerimeter=0;endArrow=none;endFill=0;fontColor=#000000;" parent="1" source="Y9TT-bLVbpre5m3tWu_5-3" target="Y9TT-bLVbpre5m3tWu_5-2" edge="1">
          <mxGeometry relative="1" as="geometry" />
        </mxCell>
        <mxCell id="UunZmqjJ6yBRfW_tSE8K-1" style="rounded=0;orthogonalLoop=1;jettySize=auto;html=1;exitX=0.5;exitY=0.5;exitDx=0;exitDy=0;exitPerimeter=0;entryX=0;entryY=0.5;entryDx=0;entryDy=0;fontFamily=Verdana;fontColor=#000000;endArrow=none;endFill=0;" parent="1" target="UunZmqjJ6yBRfW_tSE8K-2" edge="1">
          <mxGeometry relative="1" as="geometry">
            <mxPoint x="65" y="-780" as="sourcePoint" />
          </mxGeometry>
        </mxCell>
        <mxCell id="UunZmqjJ6yBRfW_tSE8K-2" value="&lt;div style=&quot;text-indent: -21px;&quot;&gt;&lt;span style=&quot;font-size: 14px;&quot;&gt;&lt;b&gt;&amp;nbsp; &amp;nbsp; &amp;nbsp; Join Clan&lt;/b&gt;&lt;/span&gt;&lt;/div&gt;" style="ellipse;whiteSpace=wrap;html=1;fontFamily=Verdana;fontColor=#000000;" parent="1" vertex="1">
          <mxGeometry x="170" y="-850" width="140" height="70" as="geometry" />
        </mxCell>
        <mxCell id="7UyZ_y0xGmnawDwJEAwz-1" value="&lt;p style=&quot;margin: 0px 0px 0px 21px; text-indent: -21px; font-style: normal; font-variant: normal; font-stretch: normal; font-size: 14px; line-height: normal; font-size-adjust: none; font-kerning: auto; font-feature-settings: normal; font-optical-sizing: auto; font-variation-settings: normal;&quot;&gt;&lt;b&gt;Chatting&lt;/b&gt;&lt;/p&gt;&lt;p style=&quot;margin: 0px 0px 0px 21px; text-indent: -21px; font-style: normal; font-variant: normal; font-stretch: normal; font-size: 14px; line-height: normal; font-size-adjust: none; font-kerning: auto; font-feature-settings: normal; font-optical-sizing: auto; font-variation-settings: normal;&quot;&gt;&lt;b&gt;-------------&lt;/b&gt;&lt;/p&gt;&lt;p style=&quot;margin: 0px 0px 0px 21px; text-indent: -21px; font-style: normal; font-variant-ligatures: normal; font-variant-caps: normal; font-variant-alternates: normal; font-variant-numeric: normal; font-variant-east-asian: normal; font-variant-position: normal; font-variant-emoji: normal; font-stretch: normal; line-height: normal; font-size-adjust: none; font-kerning: auto; font-feature-settings: normal; font-optical-sizing: auto; font-variation-settings: normal; font-size: 10px;&quot;&gt;&lt;b&gt;Messaging&lt;/b&gt;&lt;/p&gt;&lt;p style=&quot;margin: 0px 0px 0px 21px; text-indent: -21px; font-style: normal; font-variant-ligatures: normal; font-variant-caps: normal; font-variant-alternates: normal; font-variant-numeric: normal; font-variant-east-asian: normal; font-variant-position: normal; font-variant-emoji: normal; font-stretch: normal; line-height: normal; font-size-adjust: none; font-kerning: auto; font-feature-settings: normal; font-optical-sizing: auto; font-variation-settings: normal; font-size: 10px;&quot;&gt;&lt;b&gt;Request / Donate&lt;/b&gt;&lt;/p&gt;&lt;p style=&quot;margin: 0px 0px 0px 21px; text-indent: -21px; font-variant-ligatures: normal; font-variant-alternates: normal; font-variant-numeric: normal; font-variant-east-asian: normal; font-variant-position: normal; font-stretch: normal; line-height: normal; font-size-adjust: none; font-kerning: auto; font-feature-settings: normal; font-optical-sizing: auto; font-variation-settings: normal;&quot;&gt;&lt;b style=&quot;font-size: 10px; font-style: normal; font-variant-caps: normal;&quot;&gt;Friendly&amp;nbsp;&lt;/b&gt;&lt;font size=&quot;1&quot;&gt;&lt;b&gt;battle&lt;/b&gt;&lt;/font&gt;&lt;/p&gt;" style="ellipse;whiteSpace=wrap;html=1;fontFamily=Verdana;fontColor=#000000;" parent="1" vertex="1">
          <mxGeometry x="170" y="-760" width="140" height="110" as="geometry" />
        </mxCell>
        <mxCell id="_ATYGtqFEuu8Fpfr5ler-1" value="&lt;p style=&quot;margin: 0px 0px 0px 21px; text-indent: -21px; font-variant-numeric: normal; font-variant-east-asian: normal; font-variant-alternates: normal; font-variant-position: normal; font-stretch: normal; line-height: normal; font-size-adjust: none; font-kerning: auto; font-feature-settings: normal; font-optical-sizing: auto; font-variation-settings: normal;&quot;&gt;&lt;span style=&quot;font-size: 14px;&quot;&gt;&lt;b&gt;&amp;nbsp;War&lt;/b&gt;&lt;/span&gt;&lt;/p&gt;&lt;p style=&quot;margin: 0px 0px 0px 21px; text-indent: -21px; font-variant-numeric: normal; font-variant-east-asian: normal; font-variant-alternates: normal; font-variant-position: normal; font-stretch: normal; line-height: normal; font-size-adjust: none; font-kerning: auto; font-feature-settings: normal; font-optical-sizing: auto; font-variation-settings: normal;&quot;&gt;&lt;span style=&quot;font-size: 14px;&quot;&gt;&lt;b&gt;-------------&lt;/b&gt;&lt;/span&gt;&lt;/p&gt;&lt;p style=&quot;margin: 0px 0px 0px 21px; text-indent: -21px; font-variant-numeric: normal; font-variant-east-asian: normal; font-variant-alternates: normal; font-variant-position: normal; font-stretch: normal; line-height: normal; font-size-adjust: none; font-kerning: auto; font-feature-settings: normal; font-optical-sizing: auto; font-variation-settings: normal; font-size: 10px;&quot;&gt;start , attending,&lt;/p&gt;&lt;p style=&quot;margin: 0px 0px 0px 21px; text-indent: -21px; font-variant-numeric: normal; font-variant-east-asian: normal; font-variant-alternates: normal; font-variant-position: normal; font-stretch: normal; line-height: normal; font-size-adjust: none; font-kerning: auto; font-feature-settings: normal; font-optical-sizing: auto; font-variation-settings: normal; font-size: 10px;&quot;&gt;ending&lt;/p&gt;" style="ellipse;whiteSpace=wrap;html=1;fontFamily=Verdana;fontColor=#000000;" parent="1" vertex="1">
          <mxGeometry x="185" y="-630" width="110" height="100" as="geometry" />
        </mxCell>
        <mxCell id="GVBWUSe9KcjTtZp_Sv3P-2" style="rounded=0;orthogonalLoop=1;jettySize=auto;html=1;exitX=1;exitY=0.5;exitDx=0;exitDy=0;entryX=0.5;entryY=0.5;entryDx=0;entryDy=0;entryPerimeter=0;endArrow=none;endFill=0;" parent="1" source="UunZmqjJ6yBRfW_tSE8K-2" target="Y9TT-bLVbpre5m3tWu_5-2" edge="1">
          <mxGeometry relative="1" as="geometry" />
        </mxCell>
        <mxCell id="GVBWUSe9KcjTtZp_Sv3P-3" style="rounded=0;orthogonalLoop=1;jettySize=auto;html=1;exitX=1;exitY=0.5;exitDx=0;exitDy=0;entryX=0.5;entryY=0.5;entryDx=0;entryDy=0;entryPerimeter=0;endArrow=none;endFill=0;" parent="1" source="7UyZ_y0xGmnawDwJEAwz-1" target="Y9TT-bLVbpre5m3tWu_5-2" edge="1">
          <mxGeometry relative="1" as="geometry" />
        </mxCell>
        <mxCell id="GVBWUSe9KcjTtZp_Sv3P-4" style="rounded=0;orthogonalLoop=1;jettySize=auto;html=1;exitX=1;exitY=0.5;exitDx=0;exitDy=0;entryX=0.5;entryY=0.5;entryDx=0;entryDy=0;entryPerimeter=0;endArrow=none;endFill=0;" parent="1" source="_ATYGtqFEuu8Fpfr5ler-1" target="Y9TT-bLVbpre5m3tWu_5-2" edge="1">
          <mxGeometry relative="1" as="geometry" />
        </mxCell>
        <mxCell id="GVBWUSe9KcjTtZp_Sv3P-6" style="rounded=0;orthogonalLoop=1;jettySize=auto;html=1;exitX=1;exitY=0.5;exitDx=0;exitDy=0;entryX=0.5;entryY=0.5;entryDx=0;entryDy=0;entryPerimeter=0;endArrow=none;endFill=0;" parent="1" source="H6w9JN00VTNh25Fgn8am-5" target="Y9TT-bLVbpre5m3tWu_5-2" edge="1">
          <mxGeometry relative="1" as="geometry" />
        </mxCell>
      </root>
    </mxGraphModel>
  </diagram>
  <diagram id="6LSb2bSltY3nTUONb6Cj" name="Page-3">
    <mxGraphModel dx="1480" dy="1187" grid="0" gridSize="10" guides="1" tooltips="1" connect="1" arrows="1" fold="1" page="0" pageScale="1" pageWidth="850" pageHeight="1100" math="0" shadow="0">
      <root>
        <mxCell id="0" />
        <mxCell id="1" parent="0" />
        <mxCell id="flUz1PLu1tL51Thov7q1-26" style="edgeStyle=none;curved=1;rounded=0;orthogonalLoop=1;jettySize=auto;html=1;exitX=0.5;exitY=0.5;exitDx=0;exitDy=0;exitPerimeter=0;entryX=0;entryY=0.5;entryDx=0;entryDy=0;fontSize=12;startSize=8;endSize=8;endArrow=none;endFill=0;" edge="1" parent="1" source="nhDJHWhZvZIBSGXb-P9E-1" target="flUz1PLu1tL51Thov7q1-24">
          <mxGeometry relative="1" as="geometry" />
        </mxCell>
        <mxCell id="nhDJHWhZvZIBSGXb-P9E-1" value="کاربر" style="shape=umlActor;verticalLabelPosition=bottom;verticalAlign=top;html=1;" vertex="1" parent="1">
          <mxGeometry x="-175" y="126" width="30" height="60" as="geometry" />
        </mxCell>
        <mxCell id="Hzylit8MtmqjoGNfvD7V-4" value="&lt;div&gt;&lt;span style=&quot;font-size: 14px;&quot;&gt;خرید کردن&lt;/span&gt;&lt;br&gt;&lt;/div&gt;&lt;div style=&quot;font-size: 10px;&quot;&gt;&lt;span style=&quot;&quot;&gt;----------------------------&lt;/span&gt;&lt;/div&gt;&lt;div&gt;&lt;font style=&quot;font-size: 12px;&quot;&gt;خرید کردن منابع ، ساختمان ها&lt;/font&gt;&amp;nbsp;و اشتراک&lt;/div&gt;&lt;div style=&quot;&quot;&gt;خرید دلاری&lt;/div&gt;" style="ellipse;whiteSpace=wrap;html=1;" vertex="1" parent="1">
          <mxGeometry x="145" y="-153" width="200" height="104" as="geometry" />
        </mxCell>
        <mxCell id="RfH9sc_HeRx0CsQY-vBq-10" style="edgeStyle=none;curved=1;rounded=0;orthogonalLoop=1;jettySize=auto;html=1;exitX=0;exitY=0.5;exitDx=0;exitDy=0;fontSize=12;entryX=0.5;entryY=0.5;entryDx=0;entryDy=0;entryPerimeter=0;endArrow=none;endFill=0;" edge="1" parent="1" source="RfH9sc_HeRx0CsQY-vBq-2" target="nhDJHWhZvZIBSGXb-P9E-1">
          <mxGeometry relative="1" as="geometry">
            <mxPoint x="98.82608695652198" y="12.130434782608745" as="targetPoint" />
          </mxGeometry>
        </mxCell>
        <mxCell id="RfH9sc_HeRx0CsQY-vBq-2" value="&lt;div&gt;&lt;span style=&quot;font-size: 14px;&quot;&gt;چت کردن&lt;/span&gt;&lt;br&gt;&lt;/div&gt;&lt;div style=&quot;font-size: 10px;&quot;&gt;&lt;span style=&quot;&quot;&gt;------------------------------&lt;/span&gt;&lt;/div&gt;&lt;div style=&quot;&quot;&gt;پیام گزاشتن / درخواست نیرو&lt;/div&gt;&lt;div style=&quot;&quot;&gt;اهدا کردن نیرو /&amp;nbsp;&lt;/div&gt;&lt;div style=&quot;&quot;&gt;به اشتراک گذاشتن حمله یا دفاع /&lt;/div&gt;&lt;div style=&quot;&quot;&gt;&lt;br&gt;&lt;/div&gt;" style="ellipse;whiteSpace=wrap;html=1;" vertex="1" parent="1">
          <mxGeometry x="145" y="9" width="200" height="110" as="geometry" />
        </mxCell>
        <mxCell id="RfH9sc_HeRx0CsQY-vBq-9" value="دیتابیس" style="shape=umlActor;verticalLabelPosition=bottom;verticalAlign=top;html=1;" vertex="1" parent="1">
          <mxGeometry x="619" y="126" width="30" height="60" as="geometry" />
        </mxCell>
        <mxCell id="RfH9sc_HeRx0CsQY-vBq-11" style="edgeStyle=none;curved=1;rounded=0;orthogonalLoop=1;jettySize=auto;html=1;exitX=0;exitY=0.5;exitDx=0;exitDy=0;entryX=0.5;entryY=0.5;entryDx=0;entryDy=0;entryPerimeter=0;fontSize=12;startSize=8;endSize=8;endArrow=none;endFill=0;" edge="1" parent="1" source="Hzylit8MtmqjoGNfvD7V-4" target="nhDJHWhZvZIBSGXb-P9E-1">
          <mxGeometry relative="1" as="geometry" />
        </mxCell>
        <mxCell id="flUz1PLu1tL51Thov7q1-1" value="&lt;font style=&quot;font-size: 14px;&quot;&gt;clan مدیریت&lt;/font&gt;&lt;div style=&quot;font-size: 10px;&quot;&gt;&lt;font style=&quot;font-size: 10px;&quot;&gt;--------------------------------&lt;/font&gt;&lt;/div&gt;&lt;div style=&quot;&quot;&gt;عضو شدن / بیرون رفتن / ارتقا دادن&lt;/div&gt;&lt;div style=&quot;&quot;&gt;بیرون انداختن /عوض کردن تنظیمات&lt;/div&gt;&lt;div style=&quot;&quot;&gt;مشاهده وضعيت / پذیرفتن عضو&lt;/div&gt;&lt;div style=&quot;&quot;&gt;/ ساختن&amp;nbsp;&lt;/div&gt;" style="ellipse;whiteSpace=wrap;html=1;" vertex="1" parent="1">
          <mxGeometry x="145" y="339" width="200" height="140" as="geometry" />
        </mxCell>
        <mxCell id="flUz1PLu1tL51Thov7q1-2" style="edgeStyle=none;curved=1;rounded=0;orthogonalLoop=1;jettySize=auto;html=1;exitX=0;exitY=0.5;exitDx=0;exitDy=0;entryX=0.5;entryY=0.5;entryDx=0;entryDy=0;entryPerimeter=0;fontSize=12;startSize=8;endSize=8;endArrow=none;endFill=0;" edge="1" parent="1" source="flUz1PLu1tL51Thov7q1-1" target="nhDJHWhZvZIBSGXb-P9E-1">
          <mxGeometry relative="1" as="geometry" />
        </mxCell>
        <mxCell id="flUz1PLu1tL51Thov7q1-6" style="edgeStyle=none;curved=1;rounded=0;orthogonalLoop=1;jettySize=auto;html=1;exitX=1;exitY=0.5;exitDx=0;exitDy=0;entryX=0.5;entryY=0.5;entryDx=0;entryDy=0;entryPerimeter=0;fontSize=12;startSize=8;endSize=8;endArrow=none;endFill=0;" edge="1" parent="1" source="RfH9sc_HeRx0CsQY-vBq-2" target="RfH9sc_HeRx0CsQY-vBq-9">
          <mxGeometry relative="1" as="geometry" />
        </mxCell>
        <mxCell id="flUz1PLu1tL51Thov7q1-7" style="edgeStyle=none;curved=1;rounded=0;orthogonalLoop=1;jettySize=auto;html=1;exitX=1;exitY=0.5;exitDx=0;exitDy=0;entryX=0.5;entryY=0.5;entryDx=0;entryDy=0;entryPerimeter=0;fontSize=12;startSize=8;endSize=8;endArrow=none;endFill=0;" edge="1" parent="1" source="Hzylit8MtmqjoGNfvD7V-4" target="RfH9sc_HeRx0CsQY-vBq-9">
          <mxGeometry relative="1" as="geometry" />
        </mxCell>
        <mxCell id="flUz1PLu1tL51Thov7q1-9" style="edgeStyle=none;curved=1;rounded=0;orthogonalLoop=1;jettySize=auto;html=1;exitX=1;exitY=0.5;exitDx=0;exitDy=0;entryX=0.5;entryY=0.5;entryDx=0;entryDy=0;entryPerimeter=0;fontSize=12;startSize=8;endSize=8;endArrow=none;endFill=0;" edge="1" parent="1" source="flUz1PLu1tL51Thov7q1-1" target="RfH9sc_HeRx0CsQY-vBq-9">
          <mxGeometry relative="1" as="geometry" />
        </mxCell>
        <mxCell id="flUz1PLu1tL51Thov7q1-10" value="درگاه بانکی" style="shape=umlActor;verticalLabelPosition=bottom;verticalAlign=top;html=1;" vertex="1" parent="1">
          <mxGeometry x="597" y="-131" width="30" height="60" as="geometry" />
        </mxCell>
        <mxCell id="flUz1PLu1tL51Thov7q1-11" style="edgeStyle=none;curved=1;rounded=0;orthogonalLoop=1;jettySize=auto;html=1;exitX=1;exitY=0.5;exitDx=0;exitDy=0;entryX=0.5;entryY=0.5;entryDx=0;entryDy=0;entryPerimeter=0;fontSize=12;startSize=8;endSize=8;endArrow=none;endFill=0;" edge="1" parent="1" source="Hzylit8MtmqjoGNfvD7V-4" target="flUz1PLu1tL51Thov7q1-10">
          <mxGeometry relative="1" as="geometry" />
        </mxCell>
        <mxCell id="flUz1PLu1tL51Thov7q1-24" value="&lt;font style=&quot;font-size: 14px;&quot;&gt;جنگ گروهی&lt;/font&gt;&lt;div style=&quot;font-size: 10px;&quot;&gt;------------------------------------&lt;/div&gt;&lt;div&gt;&lt;font style=&quot;font-size: 12px;&quot;&gt;/شروع کردن جنگ گروهی&lt;/font&gt;&lt;/div&gt;&lt;div&gt;&lt;font style=&quot;font-size: 12px;&quot;&gt;/شرکت در جنگ گروهی&lt;/font&gt;&lt;/div&gt;&lt;div&gt;&lt;font style=&quot;font-size: 12px;&quot;&gt;/مشاهده جنگ گروهی&lt;/font&gt;&lt;/div&gt;&lt;div&gt;&lt;font style=&quot;font-size: 12px;&quot;&gt;محاسبه نتیجه&lt;/font&gt;&lt;/div&gt;" style="ellipse;whiteSpace=wrap;html=1;" vertex="1" parent="1">
          <mxGeometry x="145" y="166" width="200" height="105" as="geometry" />
        </mxCell>
        <mxCell id="flUz1PLu1tL51Thov7q1-27" style="edgeStyle=none;curved=1;rounded=0;orthogonalLoop=1;jettySize=auto;html=1;exitX=1;exitY=0.5;exitDx=0;exitDy=0;entryX=0.5;entryY=0.5;entryDx=0;entryDy=0;entryPerimeter=0;fontSize=12;startSize=8;endSize=8;endArrow=none;endFill=0;" edge="1" parent="1" source="flUz1PLu1tL51Thov7q1-24" target="RfH9sc_HeRx0CsQY-vBq-9">
          <mxGeometry relative="1" as="geometry" />
        </mxCell>
        <mxCell id="flUz1PLu1tL51Thov7q1-28" value="تایمر&lt;div&gt;&lt;br&gt;&lt;/div&gt;" style="shape=umlActor;verticalLabelPosition=bottom;verticalAlign=top;html=1;" vertex="1" parent="1">
          <mxGeometry x="619" y="310" width="30" height="60" as="geometry" />
        </mxCell>
        <mxCell id="flUz1PLu1tL51Thov7q1-32" style="edgeStyle=none;curved=1;rounded=0;orthogonalLoop=1;jettySize=auto;html=1;exitX=1;exitY=0.5;exitDx=0;exitDy=0;entryX=0.5;entryY=0.5;entryDx=0;entryDy=0;entryPerimeter=0;fontSize=12;startSize=8;endSize=8;endArrow=none;endFill=0;" edge="1" parent="1" source="flUz1PLu1tL51Thov7q1-24" target="flUz1PLu1tL51Thov7q1-28">
          <mxGeometry relative="1" as="geometry" />
        </mxCell>
      </root>
    </mxGraphModel>
  </diagram>
  <diagram id="P7tXlXwVU7sVLnKO-C5T" name="Page-4">
    <mxGraphModel dx="2507" dy="1353" grid="0" gridSize="10" guides="1" tooltips="1" connect="1" arrows="1" fold="1" page="0" pageScale="1" pageWidth="850" pageHeight="1100" math="0" shadow="0">
      <root>
        <mxCell id="0" />
        <mxCell id="1" parent="0" />
        <mxCell id="JlS-tcVNOVCzt9gDtFWv-38" style="edgeStyle=none;curved=1;rounded=0;orthogonalLoop=1;jettySize=auto;html=1;exitX=1;exitY=0.5;exitDx=0;exitDy=0;entryX=0;entryY=0.5;entryDx=0;entryDy=0;fontSize=12;startSize=8;endSize=8;" edge="1" parent="1" source="JlS-tcVNOVCzt9gDtFWv-1" target="JlS-tcVNOVCzt9gDtFWv-8">
          <mxGeometry relative="1" as="geometry" />
        </mxCell>
        <mxCell id="JlS-tcVNOVCzt9gDtFWv-1" value="گرفتن اطلاعات کلن&amp;nbsp;&lt;div&gt;توسط سیستم&lt;/div&gt;" style="rounded=1;whiteSpace=wrap;html=1;" vertex="1" parent="1">
          <mxGeometry x="-529" y="-108" width="120" height="60" as="geometry" />
        </mxCell>
        <mxCell id="JlS-tcVNOVCzt9gDtFWv-12" style="edgeStyle=none;curved=1;rounded=0;orthogonalLoop=1;jettySize=auto;html=1;exitX=0.5;exitY=1;exitDx=0;exitDy=0;fontSize=12;startSize=8;endSize=8;" edge="1" parent="1" source="JlS-tcVNOVCzt9gDtFWv-2">
          <mxGeometry relative="1" as="geometry">
            <mxPoint x="75" y="58" as="targetPoint" />
          </mxGeometry>
        </mxCell>
        <mxCell id="JlS-tcVNOVCzt9gDtFWv-13" value="[ندارد]" style="edgeLabel;html=1;align=center;verticalAlign=middle;resizable=0;points=[];fontSize=12;" vertex="1" connectable="0" parent="JlS-tcVNOVCzt9gDtFWv-12">
          <mxGeometry x="-0.0313" y="1" relative="1" as="geometry">
            <mxPoint x="-1" as="offset" />
          </mxGeometry>
        </mxCell>
        <mxCell id="JlS-tcVNOVCzt9gDtFWv-14" style="edgeStyle=none;curved=1;rounded=0;orthogonalLoop=1;jettySize=auto;html=1;exitX=1;exitY=0.5;exitDx=0;exitDy=0;fontSize=12;startSize=8;endSize=8;entryX=0;entryY=0.5;entryDx=0;entryDy=0;" edge="1" parent="1" source="JlS-tcVNOVCzt9gDtFWv-2" target="JlS-tcVNOVCzt9gDtFWv-6">
          <mxGeometry relative="1" as="geometry">
            <mxPoint x="183" y="57" as="targetPoint" />
          </mxGeometry>
        </mxCell>
        <mxCell id="JlS-tcVNOVCzt9gDtFWv-17" value="[دارد]" style="edgeLabel;html=1;align=center;verticalAlign=middle;resizable=0;points=[];fontSize=12;" vertex="1" connectable="0" parent="JlS-tcVNOVCzt9gDtFWv-14">
          <mxGeometry x="-0.11" y="-3" relative="1" as="geometry">
            <mxPoint as="offset" />
          </mxGeometry>
        </mxCell>
        <mxCell id="JlS-tcVNOVCzt9gDtFWv-2" value="کاربر قصد&amp;nbsp;&lt;div&gt;خروج&lt;/div&gt;" style="rhombus;whiteSpace=wrap;html=1;" vertex="1" parent="1">
          <mxGeometry x="35" y="-118" width="80" height="80" as="geometry" />
        </mxCell>
        <mxCell id="JlS-tcVNOVCzt9gDtFWv-10" style="edgeStyle=none;curved=1;rounded=0;orthogonalLoop=1;jettySize=auto;html=1;exitX=0.5;exitY=1;exitDx=0;exitDy=0;entryX=0.5;entryY=0;entryDx=0;entryDy=0;fontSize=12;startSize=8;endSize=8;" edge="1" parent="1" source="JlS-tcVNOVCzt9gDtFWv-3" target="JlS-tcVNOVCzt9gDtFWv-1">
          <mxGeometry relative="1" as="geometry" />
        </mxCell>
        <mxCell id="JlS-tcVNOVCzt9gDtFWv-3" value="" style="ellipse;html=1;shape=startState;fillColor=#000000;strokeColor=#ff0000;" vertex="1" parent="1">
          <mxGeometry x="-484" y="-259" width="30" height="30" as="geometry" />
        </mxCell>
        <mxCell id="JlS-tcVNOVCzt9gDtFWv-6" value="" style="ellipse;html=1;shape=endState;fillColor=#000000;strokeColor=#ff0000;" vertex="1" parent="1">
          <mxGeometry x="323" y="-93" width="30" height="30" as="geometry" />
        </mxCell>
        <mxCell id="JlS-tcVNOVCzt9gDtFWv-39" style="edgeStyle=none;curved=1;rounded=0;orthogonalLoop=1;jettySize=auto;html=1;exitX=1;exitY=0.5;exitDx=0;exitDy=0;fontSize=12;startSize=8;endSize=8;" edge="1" parent="1" source="JlS-tcVNOVCzt9gDtFWv-8" target="JlS-tcVNOVCzt9gDtFWv-2">
          <mxGeometry relative="1" as="geometry" />
        </mxCell>
        <mxCell id="JlS-tcVNOVCzt9gDtFWv-8" value="" style="rhombus;" vertex="1" parent="1">
          <mxGeometry x="-209" y="-93" width="30" height="30" as="geometry" />
        </mxCell>
        <mxCell id="JlS-tcVNOVCzt9gDtFWv-28" style="edgeStyle=none;curved=1;rounded=0;orthogonalLoop=1;jettySize=auto;html=1;exitX=0;exitY=0.5;exitDx=0;exitDy=0;entryX=1;entryY=0.5;entryDx=0;entryDy=0;fontSize=12;startSize=8;endSize=8;" edge="1" parent="1" source="JlS-tcVNOVCzt9gDtFWv-11" target="JlS-tcVNOVCzt9gDtFWv-27">
          <mxGeometry relative="1" as="geometry" />
        </mxCell>
        <mxCell id="JlS-tcVNOVCzt9gDtFWv-11" value="مشاهده لیست اعضای&amp;nbsp;&lt;div&gt;&amp;nbsp;کلن توسط کاربر&lt;/div&gt;" style="rounded=1;whiteSpace=wrap;html=1;" vertex="1" parent="1">
          <mxGeometry x="-354" y="72" width="120" height="60" as="geometry" />
        </mxCell>
        <mxCell id="JlS-tcVNOVCzt9gDtFWv-20" style="edgeStyle=none;curved=1;rounded=0;orthogonalLoop=1;jettySize=auto;html=1;exitX=0;exitY=0.5;exitDx=0;exitDy=0;fontSize=12;startSize=8;endSize=8;entryX=1;entryY=0.5;entryDx=0;entryDy=0;" edge="1" parent="1" source="JlS-tcVNOVCzt9gDtFWv-19" target="JlS-tcVNOVCzt9gDtFWv-11">
          <mxGeometry relative="1" as="geometry">
            <mxPoint x="-113" y="102" as="targetPoint" />
          </mxGeometry>
        </mxCell>
        <mxCell id="JlS-tcVNOVCzt9gDtFWv-21" value="[شروع جنگ گروهی]" style="edgeLabel;html=1;align=center;verticalAlign=middle;resizable=0;points=[];fontSize=12;" vertex="1" connectable="0" parent="JlS-tcVNOVCzt9gDtFWv-20">
          <mxGeometry x="-0.0405" y="1" relative="1" as="geometry">
            <mxPoint as="offset" />
          </mxGeometry>
        </mxCell>
        <mxCell id="JlS-tcVNOVCzt9gDtFWv-22" style="edgeStyle=none;curved=1;rounded=0;orthogonalLoop=1;jettySize=auto;html=1;exitX=0.5;exitY=1;exitDx=0;exitDy=0;fontSize=12;startSize=8;endSize=8;" edge="1" parent="1" source="JlS-tcVNOVCzt9gDtFWv-19">
          <mxGeometry relative="1" as="geometry">
            <mxPoint x="75" y="275" as="targetPoint" />
          </mxGeometry>
        </mxCell>
        <mxCell id="JlS-tcVNOVCzt9gDtFWv-23" value="[مشاهده جنگ]" style="edgeLabel;html=1;align=center;verticalAlign=middle;resizable=0;points=[];fontSize=12;" vertex="1" connectable="0" parent="JlS-tcVNOVCzt9gDtFWv-22">
          <mxGeometry x="-0.0075" relative="1" as="geometry">
            <mxPoint as="offset" />
          </mxGeometry>
        </mxCell>
        <mxCell id="JlS-tcVNOVCzt9gDtFWv-24" style="edgeStyle=none;curved=1;rounded=0;orthogonalLoop=1;jettySize=auto;html=1;exitX=1;exitY=0.5;exitDx=0;exitDy=0;fontSize=12;startSize=8;endSize=8;" edge="1" parent="1" source="JlS-tcVNOVCzt9gDtFWv-19">
          <mxGeometry relative="1" as="geometry">
            <mxPoint x="278" y="102" as="targetPoint" />
          </mxGeometry>
        </mxCell>
        <mxCell id="JlS-tcVNOVCzt9gDtFWv-25" value="[شرکت در جنگ]" style="edgeLabel;html=1;align=center;verticalAlign=middle;resizable=0;points=[];fontSize=12;" vertex="1" connectable="0" parent="JlS-tcVNOVCzt9gDtFWv-24">
          <mxGeometry x="-0.2025" y="-1" relative="1" as="geometry">
            <mxPoint as="offset" />
          </mxGeometry>
        </mxCell>
        <mxCell id="JlS-tcVNOVCzt9gDtFWv-19" value="کاربر خواستار" style="rhombus;whiteSpace=wrap;html=1;" vertex="1" parent="1">
          <mxGeometry x="35" y="62" width="80" height="80" as="geometry" />
        </mxCell>
        <mxCell id="JlS-tcVNOVCzt9gDtFWv-30" style="edgeStyle=none;curved=1;rounded=0;orthogonalLoop=1;jettySize=auto;html=1;exitX=0.5;exitY=1;exitDx=0;exitDy=0;entryX=0.5;entryY=0;entryDx=0;entryDy=0;fontSize=12;startSize=8;endSize=8;" edge="1" parent="1" source="JlS-tcVNOVCzt9gDtFWv-27" target="JlS-tcVNOVCzt9gDtFWv-29">
          <mxGeometry relative="1" as="geometry" />
        </mxCell>
        <mxCell id="JlS-tcVNOVCzt9gDtFWv-27" value="انتخاب اعضا توسط&amp;nbsp;&lt;div&gt;کاربر (مضرب ۵)&lt;/div&gt;" style="rounded=1;whiteSpace=wrap;html=1;" vertex="1" parent="1">
          <mxGeometry x="-537" y="72" width="120" height="60" as="geometry" />
        </mxCell>
        <mxCell id="JlS-tcVNOVCzt9gDtFWv-32" style="edgeStyle=none;curved=1;rounded=0;orthogonalLoop=1;jettySize=auto;html=1;exitX=0.5;exitY=1;exitDx=0;exitDy=0;entryX=0.5;entryY=0;entryDx=0;entryDy=0;fontSize=12;startSize=8;endSize=8;" edge="1" parent="1" source="JlS-tcVNOVCzt9gDtFWv-29" target="JlS-tcVNOVCzt9gDtFWv-31">
          <mxGeometry relative="1" as="geometry" />
        </mxCell>
        <mxCell id="JlS-tcVNOVCzt9gDtFWv-29" value="مشاهده موارد قابل اجرا&lt;div&gt;توسط کاربر&lt;/div&gt;" style="rounded=1;whiteSpace=wrap;html=1;" vertex="1" parent="1">
          <mxGeometry x="-537" y="214" width="120" height="60" as="geometry" />
        </mxCell>
        <mxCell id="JlS-tcVNOVCzt9gDtFWv-33" style="edgeStyle=orthogonalEdgeStyle;rounded=0;orthogonalLoop=1;jettySize=auto;html=1;exitX=0;exitY=1;exitDx=0;exitDy=0;fontSize=12;startSize=8;endSize=8;entryX=0.5;entryY=1;entryDx=0;entryDy=0;" edge="1" parent="1" source="JlS-tcVNOVCzt9gDtFWv-31" target="JlS-tcVNOVCzt9gDtFWv-8">
          <mxGeometry relative="1" as="geometry">
            <mxPoint x="-187" y="-58" as="targetPoint" />
            <Array as="points">
              <mxPoint x="-629" y="409" />
              <mxPoint x="-629" y="-19" />
              <mxPoint x="-195" y="-19" />
            </Array>
          </mxGeometry>
        </mxCell>
        <mxCell id="JlS-tcVNOVCzt9gDtFWv-40" value="[انصراف]" style="edgeLabel;html=1;align=center;verticalAlign=middle;resizable=0;points=[];fontSize=12;" vertex="1" connectable="0" parent="JlS-tcVNOVCzt9gDtFWv-33">
          <mxGeometry x="-0.9017" relative="1" as="geometry">
            <mxPoint as="offset" />
          </mxGeometry>
        </mxCell>
        <mxCell id="JlS-tcVNOVCzt9gDtFWv-42" style="edgeStyle=none;curved=1;rounded=0;orthogonalLoop=1;jettySize=auto;html=1;exitX=0.5;exitY=1;exitDx=0;exitDy=0;fontSize=12;startSize=8;endSize=8;entryX=0.5;entryY=0;entryDx=0;entryDy=0;" edge="1" parent="1" source="JlS-tcVNOVCzt9gDtFWv-31" target="JlS-tcVNOVCzt9gDtFWv-44">
          <mxGeometry relative="1" as="geometry">
            <mxPoint x="-477" y="537" as="targetPoint" />
          </mxGeometry>
        </mxCell>
        <mxCell id="JlS-tcVNOVCzt9gDtFWv-43" value="[پیدا کردن]" style="edgeLabel;html=1;align=center;verticalAlign=middle;resizable=0;points=[];fontSize=12;" vertex="1" connectable="0" parent="JlS-tcVNOVCzt9gDtFWv-42">
          <mxGeometry x="-0.1111" y="3" relative="1" as="geometry">
            <mxPoint as="offset" />
          </mxGeometry>
        </mxCell>
        <mxCell id="JlS-tcVNOVCzt9gDtFWv-31" value="" style="rhombus;whiteSpace=wrap;html=1;" vertex="1" parent="1">
          <mxGeometry x="-517" y="349" width="80" height="80" as="geometry" />
        </mxCell>
        <mxCell id="JlS-tcVNOVCzt9gDtFWv-45" style="edgeStyle=none;curved=1;rounded=0;orthogonalLoop=1;jettySize=auto;html=1;exitX=0.5;exitY=1;exitDx=0;exitDy=0;fontSize=12;startSize=8;endSize=8;" edge="1" parent="1" source="JlS-tcVNOVCzt9gDtFWv-44">
          <mxGeometry relative="1" as="geometry">
            <mxPoint x="-477" y="694" as="targetPoint" />
          </mxGeometry>
        </mxCell>
        <mxCell id="JlS-tcVNOVCzt9gDtFWv-44" value="فراخوانی متد پیدا کردن حریف" style="rounded=1;whiteSpace=wrap;html=1;" vertex="1" parent="1">
          <mxGeometry x="-537" y="541" width="120" height="60" as="geometry" />
        </mxCell>
        <mxCell id="JlS-tcVNOVCzt9gDtFWv-48" style="edgeStyle=none;curved=1;rounded=0;orthogonalLoop=1;jettySize=auto;html=1;exitX=0;exitY=0.5;exitDx=0;exitDy=0;fontSize=12;startSize=8;endSize=8;" edge="1" parent="1" source="JlS-tcVNOVCzt9gDtFWv-46">
          <mxGeometry relative="1" as="geometry">
            <mxPoint x="-656" y="738" as="targetPoint" />
          </mxGeometry>
        </mxCell>
        <mxCell id="JlS-tcVNOVCzt9gDtFWv-49" value="[باشد]" style="edgeLabel;html=1;align=center;verticalAlign=middle;resizable=0;points=[];fontSize=12;" vertex="1" connectable="0" parent="JlS-tcVNOVCzt9gDtFWv-48">
          <mxGeometry x="-0.1367" y="3" relative="1" as="geometry">
            <mxPoint as="offset" />
          </mxGeometry>
        </mxCell>
        <mxCell id="JlS-tcVNOVCzt9gDtFWv-50" style="edgeStyle=none;curved=1;rounded=0;orthogonalLoop=1;jettySize=auto;html=1;exitX=0.5;exitY=1;exitDx=0;exitDy=0;fontSize=12;startSize=8;endSize=8;" edge="1" parent="1" source="JlS-tcVNOVCzt9gDtFWv-46">
          <mxGeometry relative="1" as="geometry">
            <mxPoint x="-477" y="918" as="targetPoint" />
          </mxGeometry>
        </mxCell>
        <mxCell id="JlS-tcVNOVCzt9gDtFWv-51" value="[نباشد]" style="edgeLabel;html=1;align=center;verticalAlign=middle;resizable=0;points=[];fontSize=12;" vertex="1" connectable="0" parent="JlS-tcVNOVCzt9gDtFWv-50">
          <mxGeometry x="-0.1571" y="-2" relative="1" as="geometry">
            <mxPoint as="offset" />
          </mxGeometry>
        </mxCell>
        <mxCell id="JlS-tcVNOVCzt9gDtFWv-46" value="لیست حریفان&lt;div&gt;:خالی&amp;nbsp;&lt;/div&gt;" style="rhombus;whiteSpace=wrap;html=1;" vertex="1" parent="1">
          <mxGeometry x="-517" y="698" width="80" height="80" as="geometry" />
        </mxCell>
        <mxCell id="JlS-tcVNOVCzt9gDtFWv-53" style="edgeStyle=none;curved=1;rounded=0;orthogonalLoop=1;jettySize=auto;html=1;exitX=0;exitY=0.5;exitDx=0;exitDy=0;fontSize=12;startSize=8;endSize=8;" edge="1" parent="1" source="JlS-tcVNOVCzt9gDtFWv-52">
          <mxGeometry relative="1" as="geometry">
            <mxPoint x="-877" y="738" as="targetPoint" />
          </mxGeometry>
        </mxCell>
        <mxCell id="JlS-tcVNOVCzt9gDtFWv-52" value="اضافه کردن کلن به لیست جنگ ها" style="rounded=1;whiteSpace=wrap;html=1;" vertex="1" parent="1">
          <mxGeometry x="-775" y="708" width="120" height="60" as="geometry" />
        </mxCell>
        <mxCell id="JlS-tcVNOVCzt9gDtFWv-54" value="" style="ellipse;html=1;shape=endState;fillColor=#000000;strokeColor=#ff0000;" vertex="1" parent="1">
          <mxGeometry x="-907" y="723" width="30" height="30" as="geometry" />
        </mxCell>
        <mxCell id="JlS-tcVNOVCzt9gDtFWv-57" style="edgeStyle=none;curved=1;rounded=0;orthogonalLoop=1;jettySize=auto;html=1;exitX=0;exitY=0.5;exitDx=0;exitDy=0;entryX=1;entryY=0.5;entryDx=0;entryDy=0;fontSize=12;startSize=8;endSize=8;" edge="1" parent="1" source="JlS-tcVNOVCzt9gDtFWv-55" target="JlS-tcVNOVCzt9gDtFWv-56">
          <mxGeometry relative="1" as="geometry" />
        </mxCell>
        <mxCell id="JlS-tcVNOVCzt9gDtFWv-55" value="سیستم اولین عضو را انتخاب میکند و از لیست پاک میکند" style="rounded=1;whiteSpace=wrap;html=1;" vertex="1" parent="1">
          <mxGeometry x="-537" y="922" width="120" height="60" as="geometry" />
        </mxCell>
        <mxCell id="JlS-tcVNOVCzt9gDtFWv-59" style="edgeStyle=none;curved=1;rounded=0;orthogonalLoop=1;jettySize=auto;html=1;exitX=0;exitY=0.5;exitDx=0;exitDy=0;entryX=1;entryY=0.5;entryDx=0;entryDy=0;fontSize=12;startSize=8;endSize=8;" edge="1" parent="1" source="JlS-tcVNOVCzt9gDtFWv-56" target="JlS-tcVNOVCzt9gDtFWv-58">
          <mxGeometry relative="1" as="geometry" />
        </mxCell>
        <mxCell id="JlS-tcVNOVCzt9gDtFWv-56" value="سیستم حریف هر دو کلن&amp;nbsp;&lt;div&gt;را ست میکند&lt;/div&gt;" style="rounded=1;whiteSpace=wrap;html=1;" vertex="1" parent="1">
          <mxGeometry x="-744" y="922" width="120" height="60" as="geometry" />
        </mxCell>
        <mxCell id="JlS-tcVNOVCzt9gDtFWv-64" style="edgeStyle=none;curved=1;rounded=0;orthogonalLoop=1;jettySize=auto;html=1;exitX=0.5;exitY=1;exitDx=0;exitDy=0;entryX=0.5;entryY=0;entryDx=0;entryDy=0;fontSize=12;startSize=8;endSize=8;" edge="1" parent="1" source="JlS-tcVNOVCzt9gDtFWv-58" target="JlS-tcVNOVCzt9gDtFWv-62">
          <mxGeometry relative="1" as="geometry" />
        </mxCell>
        <mxCell id="JlS-tcVNOVCzt9gDtFWv-58" value="فراخوانی متد مشخض&amp;nbsp;&lt;div&gt;کردن غنایم&lt;/div&gt;" style="rounded=1;whiteSpace=wrap;html=1;" vertex="1" parent="1">
          <mxGeometry x="-952" y="922" width="120" height="60" as="geometry" />
        </mxCell>
        <mxCell id="JlS-tcVNOVCzt9gDtFWv-66" style="edgeStyle=none;curved=1;rounded=0;orthogonalLoop=1;jettySize=auto;html=1;exitX=0.5;exitY=1;exitDx=0;exitDy=0;entryX=0.5;entryY=0;entryDx=0;entryDy=0;fontSize=12;startSize=8;endSize=8;" edge="1" parent="1" source="JlS-tcVNOVCzt9gDtFWv-62" target="JlS-tcVNOVCzt9gDtFWv-65">
          <mxGeometry relative="1" as="geometry" />
        </mxCell>
        <mxCell id="JlS-tcVNOVCzt9gDtFWv-62" value="سیستم تایمر جنگ را به مدت دو روز ست میکند" style="rounded=1;whiteSpace=wrap;html=1;" vertex="1" parent="1">
          <mxGeometry x="-952" y="1065" width="120" height="60" as="geometry" />
        </mxCell>
        <mxCell id="JlS-tcVNOVCzt9gDtFWv-69" style="edgeStyle=none;curved=1;rounded=0;orthogonalLoop=1;jettySize=auto;html=1;exitX=0.5;exitY=1;exitDx=0;exitDy=0;fontSize=12;startSize=8;endSize=8;" edge="1" parent="1" source="JlS-tcVNOVCzt9gDtFWv-65" target="JlS-tcVNOVCzt9gDtFWv-68">
          <mxGeometry relative="1" as="geometry" />
        </mxCell>
        <mxCell id="JlS-tcVNOVCzt9gDtFWv-65" value="سیستم تایمر اماده سازی را به مدت دو روز ست میکند" style="rounded=1;whiteSpace=wrap;html=1;" vertex="1" parent="1">
          <mxGeometry x="-952" y="1186" width="120" height="60" as="geometry" />
        </mxCell>
        <mxCell id="JlS-tcVNOVCzt9gDtFWv-68" value="" style="ellipse;html=1;shape=endState;fillColor=#000000;strokeColor=#ff0000;" vertex="1" parent="1">
          <mxGeometry x="-907" y="1330" width="30" height="30" as="geometry" />
        </mxCell>
        <mxCell id="JlS-tcVNOVCzt9gDtFWv-83" style="edgeStyle=none;curved=1;rounded=0;orthogonalLoop=1;jettySize=auto;html=1;exitX=0.5;exitY=1;exitDx=0;exitDy=0;entryX=0.5;entryY=0;entryDx=0;entryDy=0;fontSize=12;startSize=8;endSize=8;" edge="1" parent="1" source="JlS-tcVNOVCzt9gDtFWv-70" target="JlS-tcVNOVCzt9gDtFWv-72">
          <mxGeometry relative="1" as="geometry" />
        </mxCell>
        <mxCell id="JlS-tcVNOVCzt9gDtFWv-70" value="مشاهده موارد قابل اجرا" style="rounded=1;whiteSpace=wrap;html=1;" vertex="1" parent="1">
          <mxGeometry x="15" y="359" width="120" height="60" as="geometry" />
        </mxCell>
        <mxCell id="JlS-tcVNOVCzt9gDtFWv-73" style="edgeStyle=orthogonalEdgeStyle;rounded=0;orthogonalLoop=1;jettySize=auto;html=1;exitX=0;exitY=0.5;exitDx=0;exitDy=0;fontSize=12;startSize=8;endSize=8;entryX=1;entryY=1;entryDx=0;entryDy=0;" edge="1" parent="1" source="JlS-tcVNOVCzt9gDtFWv-72" target="JlS-tcVNOVCzt9gDtFWv-8">
          <mxGeometry relative="1" as="geometry">
            <mxPoint x="-119" y="446" as="targetPoint" />
            <Array as="points">
              <mxPoint x="-42" y="515" />
              <mxPoint x="-42" y="-16" />
              <mxPoint x="-186" y="-16" />
            </Array>
          </mxGeometry>
        </mxCell>
        <mxCell id="JlS-tcVNOVCzt9gDtFWv-78" value="[خروج]" style="edgeLabel;html=1;align=center;verticalAlign=middle;resizable=0;points=[];fontSize=12;" vertex="1" connectable="0" parent="JlS-tcVNOVCzt9gDtFWv-73">
          <mxGeometry x="-0.909" y="3" relative="1" as="geometry">
            <mxPoint as="offset" />
          </mxGeometry>
        </mxCell>
        <mxCell id="JlS-tcVNOVCzt9gDtFWv-84" style="edgeStyle=none;curved=1;rounded=0;orthogonalLoop=1;jettySize=auto;html=1;exitX=0.5;exitY=1;exitDx=0;exitDy=0;fontSize=12;startSize=8;endSize=8;" edge="1" parent="1" source="JlS-tcVNOVCzt9gDtFWv-72">
          <mxGeometry relative="1" as="geometry">
            <mxPoint x="72" y="682" as="targetPoint" />
          </mxGeometry>
        </mxCell>
        <mxCell id="JlS-tcVNOVCzt9gDtFWv-85" value="[اطلاعات کلی]" style="edgeLabel;html=1;align=center;verticalAlign=middle;resizable=0;points=[];fontSize=12;" vertex="1" connectable="0" parent="JlS-tcVNOVCzt9gDtFWv-84">
          <mxGeometry x="-0.0814" y="-1" relative="1" as="geometry">
            <mxPoint as="offset" />
          </mxGeometry>
        </mxCell>
        <mxCell id="JlS-tcVNOVCzt9gDtFWv-89" style="edgeStyle=none;curved=1;rounded=0;orthogonalLoop=1;jettySize=auto;html=1;exitX=1;exitY=0.5;exitDx=0;exitDy=0;fontSize=12;startSize=8;endSize=8;" edge="1" parent="1" source="JlS-tcVNOVCzt9gDtFWv-72">
          <mxGeometry relative="1" as="geometry">
            <mxPoint x="233" y="515.421052631579" as="targetPoint" />
          </mxGeometry>
        </mxCell>
        <mxCell id="JlS-tcVNOVCzt9gDtFWv-90" value="[اطلاعات اعضا]" style="edgeLabel;html=1;align=center;verticalAlign=middle;resizable=0;points=[];fontSize=12;" vertex="1" connectable="0" parent="JlS-tcVNOVCzt9gDtFWv-89">
          <mxGeometry x="-0.0171" y="2" relative="1" as="geometry">
            <mxPoint as="offset" />
          </mxGeometry>
        </mxCell>
        <mxCell id="JlS-tcVNOVCzt9gDtFWv-72" value="کاربر خواستار" style="rhombus;whiteSpace=wrap;html=1;" vertex="1" parent="1">
          <mxGeometry x="35" y="475" width="80" height="80" as="geometry" />
        </mxCell>
        <mxCell id="JlS-tcVNOVCzt9gDtFWv-82" style="edgeStyle=none;curved=1;rounded=0;orthogonalLoop=1;jettySize=auto;html=1;entryX=0.5;entryY=0;entryDx=0;entryDy=0;fontSize=12;startSize=8;endSize=8;" edge="1" parent="1" source="JlS-tcVNOVCzt9gDtFWv-79" target="JlS-tcVNOVCzt9gDtFWv-70">
          <mxGeometry relative="1" as="geometry" />
        </mxCell>
        <mxCell id="JlS-tcVNOVCzt9gDtFWv-79" value="" style="rhombus;" vertex="1" parent="1">
          <mxGeometry x="60" y="274" width="30" height="30" as="geometry" />
        </mxCell>
        <mxCell id="JlS-tcVNOVCzt9gDtFWv-87" style="edgeStyle=none;curved=1;rounded=0;orthogonalLoop=1;jettySize=auto;html=1;exitX=0;exitY=0.5;exitDx=0;exitDy=0;fontSize=12;startSize=8;endSize=8;entryX=1;entryY=0.5;entryDx=0;entryDy=0;" edge="1" parent="1" source="JlS-tcVNOVCzt9gDtFWv-86" target="JlS-tcVNOVCzt9gDtFWv-88">
          <mxGeometry relative="1" as="geometry">
            <mxPoint x="-89.10526315789457" y="713.3157894736842" as="targetPoint" />
          </mxGeometry>
        </mxCell>
        <mxCell id="JlS-tcVNOVCzt9gDtFWv-86" value="نشان دادن اطلاعات کلی&amp;nbsp;&lt;div&gt;جنگ&lt;/div&gt;" style="rounded=1;whiteSpace=wrap;html=1;" vertex="1" parent="1">
          <mxGeometry x="15" y="683" width="120" height="60" as="geometry" />
        </mxCell>
        <mxCell id="JlS-tcVNOVCzt9gDtFWv-88" value="" style="ellipse;html=1;shape=endState;fillColor=#000000;strokeColor=#ff0000;" vertex="1" parent="1">
          <mxGeometry x="-124" y="698" width="30" height="30" as="geometry" />
        </mxCell>
        <mxCell id="JlS-tcVNOVCzt9gDtFWv-93" style="edgeStyle=none;curved=1;rounded=0;orthogonalLoop=1;jettySize=auto;html=1;exitX=1;exitY=0.5;exitDx=0;exitDy=0;entryX=0;entryY=0.5;entryDx=0;entryDy=0;fontSize=12;startSize=8;endSize=8;" edge="1" parent="1" source="JlS-tcVNOVCzt9gDtFWv-91" target="JlS-tcVNOVCzt9gDtFWv-92">
          <mxGeometry relative="1" as="geometry" />
        </mxCell>
        <mxCell id="JlS-tcVNOVCzt9gDtFWv-91" value="" style="rhombus;" vertex="1" parent="1">
          <mxGeometry x="235" y="500" width="30" height="30" as="geometry" />
        </mxCell>
        <mxCell id="JlS-tcVNOVCzt9gDtFWv-94" style="edgeStyle=none;curved=1;rounded=0;orthogonalLoop=1;jettySize=auto;html=1;exitX=0.5;exitY=1;exitDx=0;exitDy=0;fontSize=12;startSize=8;endSize=8;" edge="1" parent="1" source="JlS-tcVNOVCzt9gDtFWv-92">
          <mxGeometry relative="1" as="geometry">
            <mxPoint x="418.2631578947371" y="619.6315789473686" as="targetPoint" />
          </mxGeometry>
        </mxCell>
        <mxCell id="JlS-tcVNOVCzt9gDtFWv-92" value="مشاهده اعضای جنگ&lt;div&gt;توسط کاربر&lt;/div&gt;" style="rounded=1;whiteSpace=wrap;html=1;" vertex="1" parent="1">
          <mxGeometry x="358" y="485" width="120" height="60" as="geometry" />
        </mxCell>
        <mxCell id="JlS-tcVNOVCzt9gDtFWv-97" style="edgeStyle=none;curved=1;rounded=0;orthogonalLoop=1;jettySize=auto;html=1;exitX=0.5;exitY=1;exitDx=0;exitDy=0;entryX=0.5;entryY=0;entryDx=0;entryDy=0;fontSize=12;startSize=8;endSize=8;" edge="1" parent="1" source="JlS-tcVNOVCzt9gDtFWv-95">
          <mxGeometry relative="1" as="geometry">
            <mxPoint x="418" y="771" as="targetPoint" />
          </mxGeometry>
        </mxCell>
        <mxCell id="JlS-tcVNOVCzt9gDtFWv-95" value="مشاهده موارد قابل اجرا&amp;nbsp;&lt;div&gt;توسط کاربر&lt;/div&gt;" style="rounded=1;whiteSpace=wrap;html=1;" vertex="1" parent="1">
          <mxGeometry x="358" y="623" width="120" height="60" as="geometry" />
        </mxCell>
        <mxCell id="JlS-tcVNOVCzt9gDtFWv-103" value="انتخاب یک ایتم توسط کاربر" style="rounded=1;whiteSpace=wrap;html=1;" vertex="1" parent="1">
          <mxGeometry x="358" y="772" width="120" height="60" as="geometry" />
        </mxCell>
      </root>
    </mxGraphModel>
  </diagram>
</mxfile>
